<svg  viewBox="0 0 154 118" fill="current" stroke="current" xmlns="http://www.w3.org/2000/svg">
<circle cx="5.01886" cy="112.981" r="5.01886" transform="rotate(-90 5.01886 112.981)" fill="current"/>
<circle cx="5.01886" cy="76.9938" r="5.01886" transform="rotate(-90 5.01886 76.9938)" fill="current"/>
<circle cx="5.01886" cy="41.006" r="5.01886" transform="rotate(-90 5.01886 41.006)" fill="current"/>
<circle cx="5.01886" cy="5.01898" r="5.01886" transform="rotate(-90 5.01886 5.01898)" fill="current"/>
<circle cx="41.0062" cy="112.981" r="5.01886" transform="rotate(-90 41.0062 112.981)" fill="current"/>
<circle cx="41.0062" cy="76.9936" r="5.01886" transform="rotate(-90 41.0062 76.9936)" fill="current"/>
<circle cx="41.0062" cy="41.006" r="5.01886" transform="rotate(-90 41.0062 41.006)" fill="current"/>
<circle cx="41.0062" cy="5.01898" r="5.01886" transform="rotate(-90 41.0062 5.01898)" fill="current"/>
<circle cx="76.994" cy="112.981" r="5.01886" transform="rotate(-90 76.994 112.981)" fill="current"/>
<circle cx="76.994" cy="76.9938" r="5.01886" transform="rotate(-90 76.994 76.9938)" fill="current"/>
<circle cx="76.994" cy="41.006" r="5.01886" transform="rotate(-90 76.994 41.006)" fill="current"/>
<circle cx="76.994" cy="5.01898" r="5.01886" transform="rotate(-90 76.994 5.01898)" fill="current"/>
<circle cx="112.981" cy="112.981" r="5.01886" transform="rotate(-90 112.981 112.981)" fill="current"/>
<circle cx="112.981" cy="76.9933" r="5.01886" transform="rotate(-90 112.981 76.9933)" fill="current"/>
<circle cx="112.981" cy="41.006" r="5.01886" transform="rotate(-90 112.981 41.006)" fill="current"/>
<circle cx="112.981" cy="5.01898" r="5.01886" transform="rotate(-90 112.981 5.01898)" fill="current"/>
<circle cx="148.969" cy="112.981" r="5.01886" transform="rotate(-90 148.969 112.981)" fill="current"/>
<circle cx="148.969" cy="76.9938" r="5.01886" transform="rotate(-90 148.969 76.9938)" fill="current"/>
<circle cx="148.969" cy="41.006" r="5.01886" transform="rotate(-90 148.969 41.006)" fill="current"/>
<circle cx="148.969" cy="5.01898" r="5.01886" transform="rotate(-90 148.969 5.01898)" fill="current"/>
</svg>
