<svg width="37" height="31" viewBox="0 0 37 31" fill="none" xmlns="http://www.w3.org/2000/svg">
<path d="M36.1319 9.04167H31.8053L30.6028 5.68333C29.3671 2.23055 26.4179 0 23.0886 0H13.9109C10.5823 0 7.63244 2.23055 6.39598 5.68333L5.19347 9.04167H0.867649C0.303253 9.04167 -0.110829 9.63422 0.0264755 10.2453L0.46007 12.1828C0.556183 12.6139 0.903059 12.9167 1.30124 12.9167H2.75162C1.78109 13.8636 1.15599 15.2401 1.15599 16.7917V20.6667C1.15599 21.968 1.60115 23.1426 2.31224 24.0516V28.4167C2.31224 29.8432 3.34781 31 4.62474 31H6.93725C8.21418 31 9.24975 29.8432 9.24975 28.4167V25.8333H27.7498V28.4167C27.7498 29.8432 28.7853 31 30.0623 31H32.3748C33.6517 31 34.6873 29.8432 34.6873 28.4167V24.0516C35.3984 23.1434 35.8435 21.9688 35.8435 20.6667V16.7917C35.8435 15.2401 35.2184 13.8636 34.2486 12.9167H35.699C36.0972 12.9167 36.4441 12.6139 36.5402 12.1828L36.9738 10.2453C37.1104 9.63422 36.6963 9.04167 36.1319 9.04167ZM10.69 7.60227C11.2168 6.13138 12.4923 5.16667 13.9109 5.16667H23.0886C24.5072 5.16667 25.7827 6.13138 26.3095 7.60227L27.7498 11.625H9.24975L10.69 7.60227ZM6.93725 20.6505C5.54974 20.6505 4.62474 19.6204 4.62474 18.0753C4.62474 16.5301 5.54974 15.5 6.93725 15.5C8.32475 15.5 10.406 17.8177 10.406 19.3629C10.406 20.908 8.32475 20.6505 6.93725 20.6505ZM30.0623 20.6505C28.6748 20.6505 26.5935 20.908 26.5935 19.3629C26.5935 17.8177 28.6748 15.5 30.0623 15.5C31.4498 15.5 32.3748 16.5301 32.3748 18.0753C32.3748 19.6204 31.4498 20.6505 30.0623 20.6505Z" fill="url(#paint0_linear_38_12415)"/>
<defs>
<linearGradient id="paint0_linear_38_12415" x1="9" y1="-7.53093e-07" x2="33.5" y2="39.5" gradientUnits="userSpaceOnUse">
<stop stop-color="#0D3DE6"/>
<stop offset="1" stop-color="#0DE6CC"/>
</linearGradient>
</defs>
</svg>
