<svg width="36" height="38" viewBox="0 0 36 38" fill="none" xmlns="http://www.w3.org/2000/svg">
<path d="M33.7875 6.21086L19.3875 0.272785C18.9489 0.0926974 18.4786 0 18.0037 0C17.5289 0 17.0586 0.0926974 16.62 0.272785L2.22 6.21086C0.8775 6.76014 0 8.05909 0 9.49908C0 24.2329 8.5875 34.4167 16.6125 37.7272C17.4975 38.0909 18.495 38.0909 19.38 37.7272C25.8075 35.0774 36 25.9253 36 9.49908C36 8.05909 35.1225 6.76014 33.7875 6.21086ZM18.0075 33.1252L18 4.84511L31.1925 10.2859C30.945 21.5237 25.035 29.6663 18.0075 33.1252Z" fill="#0D3DE6"/>
</svg>
